PathFileType	4	(X/Y/Z)	/Users/itak/Documents/Research/Walk-IL/dataset/trc/00438_00167.trc
DataRate	CameraRate	NumFrames	NumMarkers	Units	OrigDataRate	OrigDataStartFrame	OrigNumFrames
100.000000	100.000000	4	53	mm	100.000000	456	522
Frame#	Time	RPSI			LPSI			L3			STRN			T10			C7			CLAV			RBAK			LBAK			LSHO			LUPA			LAEL			LAOL			LWTS			LWPS			LFRA			LIFD			LHPS			LHTS			RSHO			RUPA			RAEL			RAOL			RWTS			RWPS			RFRA			RIFD			RHTS			RHPS			RBHD			LFHD			RFHD			LBHD			LHIP			RHIP			RASI			LASI			LKNE			LTHI			LANK			LTIP			LTOE			LMT1			LMT5			LHEE			RKNE			RTHI			RANK			RTIP			RTOE			RMT1			RMT5			RHEE			
		X1	Y1	Z1	X2	Y2	Z2	X3	Y3	Z3	X4	Y4	Z4	X5	Y5	Z5	X6	Y6	Z6	X7	Y7	Z7	X8	Y8	Z8	X9	Y9	Z9	X10	Y10	Z10	X11	Y11	Z11	X12	Y12	Z12	X13	Y13	Z13	X14	Y14	Z14	X15	Y15	Z15	X16	Y16	Z16	X17	Y17	Z17	X18	Y18	Z18	X19	Y19	Z19	X20	Y20	Z20	X21	Y21	Z21	X22	Y22	Z22	X23	Y23	Z23	X24	Y24	Z24	X25	Y25	Z25	X26	Y26	Z26	X27	Y27	Z27	X28	Y28	Z28	X29	Y29	Z29	X30	Y30	Z30	X31	Y31	Z31	X32	Y32	Z32	X33	Y33	Z33	X34	Y34	Z34	X35	Y35	Z35	X36	Y36	Z36	X37	Y37	Z37	X38	Y38	Z38	X39	Y39	Z39	X40	Y40	Z40	X41	Y41	Z41	X42	Y42	Z42	X43	Y43	Z43	X44	Y44	Z44	X45	Y45	Z45	X46	Y46	Z46	X47	Y47	Z47	X48	Y48	Z48	X49	Y49	Z49	X50	Y50	Z50	X51	Y51	Z51	X52	Y52	Z52	X53	Y53	Z53	

457	4.56	1169.550537109375	932.67431640625	996.73779296875	1270.7412109375	934.6115112304688	895.6378173828125	1220.915161132812	1037.3642578125	956.1348266601562	1421.283325195312	1244.601318359375	1131.496704101562	1213.055419921875	1160.845458984375	933.8597412109375	1249.97705078125	1430.80078125	978.0809326171875	1394.833984375	1357.337890625	1100.2763671875	1141.779418945312	1313.269287109375	1006.945739746094	1298.473266601562	1381.762939453125	885.3282470703125	1424.767944335938	1409.630981445312	904.4485473632812	1506.768920898438	1303.4697265625	832.5519409179688	1602.003295898438	1111.74853515625	833.9271240234375	1511.16650390625	1063.817626953125	820.9707641601562	1686.185424804688	951.4502563476562	957.12255859375	1704.165283203125	925.5718994140625	890.2493286132812	1650.257934570312	1039.0322265625	857.2734985351562	1752.73388671875	801.3927612304688	994.801513671875	1736.9228515625	854.6854248046875	913.5484619140625	1735.337158203125	878.7328491210938	980.500732421875	1191.140747070312	1409.721801757812	1144.660400390625	1124.09130859375	1352.134887695312	1188.934692382812	1074.968383789062	1066.7333984375	1236.898681640625	1060.27392578125	1050.45458984375	1172.390625	1174.39697265625	862.80322265625	1271.953247070312	1087.711547851562	849.7931518554688	1271.366577148438	1069.858642578125	1008.560241699219	1247.241577148438	1165.162475585938	702.8518676757812	1278.111694335938	1173.874389648438	761.9318237304688	1291.048217773438	1098.010009765625	759.5921020507812	1279.108642578125	1246.140747070312	1629.297729492188	1083.667724609375	1449.964233398438	1653.420654296875	1057.386962890625	1362.127197265625	1657.196533203125	1153.175170898438	1353.257080078125	1627.359497070312	942.5228881835938	1456.22998046875	840.200439453125	919.4083862304688	1158.647583007812	855.12451171875	1177.791015625	1276.248046875	895.8286743164062	1207.881713867188	1463.377807617188	890.6072998046875	1038.305297851562	1500.097045898438	430.4362182617188	1036.997436523438	1508.769287109375	588.52685546875	1007.407165527344	1433.725830078125	21.41095542907715	1011.462951660156	1497.406005859375	271.0078735351562	1034.161743164062	1544.007690429688	29.78101921081543	1219.380249023438	1472.113525390625	37.07416915893555	1186.478393554688	1551.840942382812	26.93709182739258	1104.068481445312	1362.192138671875	22.99711227416992	1007.705627441406	1260.857421875	483.9722900390625	1299.134887695312	1202.044311523438	731.6627807617188	1212.555786132812	1085.088500976562	176.4369354248047	1056.147338867188	1201.724365234375	364.176025390625	1239.419189453125	1236.859619140625	45.82566070556641	1135.277954101562	1229.560913085938	91.37079620361328	1079.296630859375	1138.876953125	87.26324462890625	1133.496459960938	1081.562622070312	222.1779022216797	990.6808471679688	
458	4.57	1172.856689453125	932.909423828125	999.5497436523438	1273.603515625	935.0006103515625	897.9446411132812	1224.344848632812	1037.773071289062	958.4002075195312	1424.7919921875	1244.970947265625	1134.013793945312	1216.939208984375	1161.259887695312	936.015625	1253.997802734375	1431.192138671875	980.106201171875	1398.419677734375	1357.73193359375	1102.8359375	1145.602416992188	1313.615478515625	1008.652648925781	1302.825439453125	1382.18701171875	887.4813842773438	1428.99951171875	1410.034301757812	907.19482421875	1511.817260742188	1304.22509765625	835.9149169921875	1608.912109375	1113.677734375	838.2149047851562	1518.608520507812	1064.599365234375	825.2997436523438	1694.530029296875	954.4906005859375	961.8499145507812	1712.940551757812	928.7572631835938	895.0492553710938	1657.899780273438	1041.519897460938	861.8027954101562	1762.685913085938	805.2260131835938	999.7481079101562	1746.479736328125	858.3023681640625	918.4437255859375	1744.47412109375	882.3670654296875	985.3856811523438	1194.5400390625	1410.2607421875	1146.522216796875	1127.3369140625	1352.568969726562	1190.504272460938	1078.908325195312	1066.966064453125	1238.734619140625	1064.825317382812	1050.080322265625	1174.31689453125	1180.5556640625	864.8177490234375	1276.38330078125	1094.083251953125	850.5023803710938	1274.607543945312	1074.358642578125	1008.778564453125	1249.377807617188	1173.824096679688	705.1266479492188	1284.743774414062	1181.349853515625	764.405517578125	1297.009887695312	1105.1181640625	759.8666381835938	1282.952026367188	1250.322387695312	1629.766845703125	1086.31982421875	1454.227172851562	1653.522094726562	1060.212768554688	1366.328125	1657.206787109375	1155.922973632812	1357.490112304688	1628.016357421875	945.2610473632812	1458.908935546875	840.3526611328125	920.8617553710938	1163.074829101562	855.902587890625	1180.154296875	1280.67626953125	896.635009765625	1210.130859375	1467.047119140625	890.9307861328125	1039.742797851562	1501.631713867188	430.1977233886719	1037.67236328125	1510.70654296875	588.3190307617188	1008.161193847656	1433.649047851562	21.44026374816895	1011.635314941406	1498.286743164062	270.7164611816406	1034.636352539062	1544.067504882812	29.66123962402344	1219.468505859375	1472.122924804688	37.1002082824707	1186.562133789062	1551.884033203125	26.91244506835938	1104.044677734375	1362.095581054688	23.03644943237305	1007.976013183594	1268.463623046875	485.2645874023438	1303.119384765625	1206.816528320312	732.7584838867188	1215.15869140625	1097.426025390625	169.9428253173828	1066.982421875	1211.244262695312	363.220458984375	1246.227172851562	1252.457153320312	45.31957626342773	1149.640747070312	1244.115478515625	89.05047607421875	1092.336059570312	1153.5849609375	84.3416748046875	1146.65380859375	1092.6630859375	213.4850616455078	1000.528503417969	
459	4.58	1176.057250976562	933.1500244140625	1002.341674804688	1276.37353515625	935.3129272460938	900.231689453125	1227.65576171875	1038.176635742188	960.686767578125	1428.18603515625	1245.334838867188	1136.476318359375	1220.5986328125	1161.669189453125	938.183349609375	1257.816162109375	1431.556274414062	982.1744384765625	1401.872924804688	1358.123291015625	1105.357788085938	1149.248657226562	1313.918701171875	1010.446472167969	1306.9423828125	1382.595703125	889.6354370117188	1433.012939453125	1410.433715820312	909.8844604492188	1516.585327148438	1304.936889648438	839.2093505859375	1615.38525390625	1115.496215820312	842.4044799804688	1525.5791015625	1065.35693359375	829.5966186523438	1702.388427734375	957.336181640625	966.379638671875	1721.137939453125	931.7481079101562	899.630126953125	1665.053466796875	1043.853637695312	866.1831665039062	1772.106079101562	808.8373413085938	1004.39306640625	1755.424682617188	861.7088623046875	923.0685424804688	1753.095825195312	885.7781982421875	990.0044555664062	1197.806884765625	1410.74462890625	1148.415771484375	1130.490600585938	1352.929321289062	1192.153442382812	1082.930419921875	1067.116821289062	1240.715087890625	1069.451782226562	1049.6591796875	1176.389038085938	1186.810913085938	866.7333984375	1280.701782226562	1100.587158203125	851.1229248046875	1277.97119140625	1078.95361328125	1008.920349121094	1251.669189453125	1182.460571289062	707.2979125976562	1290.963745117188	1188.875854492188	766.6958618164062	1302.620239257812	1112.357055664062	760.2146606445312	1286.858642578125	1254.319946289062	1630.228393554688	1088.946655273438	1458.29052734375	1653.625122070312	1062.9462890625	1370.345581054688	1657.240112304688	1158.595703125	1361.4990234375	1628.636352539062	947.9300537109375	1461.50341796875	840.4496459960938	922.3134155273438	1167.436401367188	856.6907348632812	1182.491821289062	1285.03857421875	897.4515380859375	1212.354125976562	1470.650634765625	891.2093505859375	1041.1484375	1503.154663085938	429.9451904296875	1038.400756835938	1512.609619140625	588.0790405273438	1008.9248046875	1433.567626953125	21.48190116882324	1011.793579101562	1499.176879882812	270.4365539550781	1035.150024414062	1544.12060546875	29.55329704284668	1219.547241210938	1472.141723632812	37.11648941040039	1186.632690429688	1551.909545898438	26.90165328979492	1104.028686523438	1361.989135742188	23.09184646606445	1008.22509765625	1275.588134765625	486.4248657226562	1306.791015625	1211.523071289062	733.8643188476562	1217.73583984375	1109.289672851562	163.1180267333984	1078.10009765625	1220.28076171875	362.1442260742188	1252.798706054688	1267.537475585938	44.62955856323242	1163.875244140625	1258.123168945312	86.52101898193359	1105.363525390625	1167.814208984375	81.19171142578125	1159.898803710938	1103.26025390625	204.4678649902344	1010.649169921875	
460	4.59	1179.156982421875	933.4171142578125	1005.109558105469	1279.060791015625	935.5577392578125	902.5237426757812	1230.870361328125	1038.58203125	962.9861450195312	1431.480224609375	1245.695190429688	1138.881469726562	1224.052856445312	1162.071533203125	940.3680419921875	1261.439575195312	1431.902709960938	984.2899780273438	1405.206176757812	1358.514404296875	1107.842407226562	1152.733154296875	1314.186645507812	1012.327087402344	1310.831909179688	1383.000610351562	891.7879638671875	1436.813598632812	1410.837768554688	912.5186767578125	1521.0791015625	1305.616333007812	842.4308471679688	1621.418701171875	1117.198486328125	846.4793090820312	1532.068969726562	1066.102905273438	833.8184204101562	1709.751708984375	959.9896240234375	970.7070922851562	1728.74072265625	934.5317993164062	903.9887084960938	1671.707275390625	1046.02734375	870.4019165039062	1780.980102539062	812.22998046875	1008.753112792969	1763.740600585938	864.8944091796875	927.4295654296875	1761.188598632812	888.97021484375	994.359375	1200.953979492188	1411.171997070312	1150.343505859375	1133.56689453125	1353.217529296875	1193.886596679688	1087.033203125	1067.198974609375	1242.85302734375	1074.133911132812	1049.216430664062	1178.615844726562	1193.158813476562	868.5569458007812	1284.887329101562	1107.20849609375	851.6751098632812	1281.460571289062	1083.64892578125	1009.001098632812	1254.129028320312	1191.05615234375	709.3215942382812	1296.734252929688	1196.451416015625	768.8098754882812	1307.868774414062	1119.836303710938	760.8285522460938	1291.001586914062	1258.135864257812	1630.68603515625	1091.555053710938	1462.155395507812	1653.7421875	1065.597045898438	1374.185668945312	1657.30517578125	1161.207885742188	1365.28662109375	1629.22216796875	950.5401611328125	1464.028930664062	840.4984741210938	923.7711791992188	1171.716552734375	857.4796142578125	1184.8115234375	1289.319580078125	898.2686157226562	1214.559814453125	1474.18505859375	891.4454345703125	1042.541015625	1504.6533203125	429.6798095703125	1039.172973632812	1514.4755859375	587.814208984375	1009.723022460938	1433.481811523438	21.53384590148926	1011.928161621094	1500.068481445312	270.1676025390625	1035.690307617188	1544.164916992188	29.46492767333984	1219.611694335938	1472.1748046875	37.12614822387695	1186.687377929688	1551.915771484375	26.90425300598145	1104.021240234375	1361.880859375	23.17688941955566	1008.431640625	1282.26220703125	487.4371337890625	1310.169921875	1216.148315429688	734.9707641601562	1220.295166015625	1120.69775390625	156.0199584960938	1089.492309570312	1228.831420898438	360.9351806640625	1259.135131835938	1282.086181640625	43.78057479858398	1177.963012695312	1271.583251953125	83.81629943847656	1118.349731445312	1181.570922851562	77.89917755126953	1173.241821289062	1113.380249023438	195.1869812011719	1021.033081054688	
